<?xml version="1.0" encoding="UTF-8"?>
<svg width="800" height="400" viewBox="0 0 800 400" fill="none" xmlns="http://www.w3.org/2000/svg">
  <rect width="800" height="400" fill="#F3F4F6"/>
  <path d="M400 180C386.745 180 376 190.745 376 204C376 217.255 386.745 228 400 228C413.255 228 424 217.255 424 204C424 190.745 413.255 180 400 180ZM400 220C391.177 220 384 212.823 384 204C384 195.177 391.177 188 400 188C408.823 188 416 195.177 416 204C416 212.823 408.823 220 400 220Z" fill="#9CA3AF"/>
  <path d="M432 172H368C363.582 172 360 175.582 360 180V228C360 232.418 363.582 236 368 236H432C436.418 236 440 232.418 440 228V180C440 175.582 436.418 172 432 172ZM432 228H368V180H432V228Z" fill="#9CA3AF"/>
  <text x="50%" y="50%" text-anchor="middle" font-family="system-ui" font-size="16" fill="#6B7280">No image available</text>
</svg>